<svg xmlns="http://www.w3.org/2000/svg" xmlns:xlink="http://www.w3.org/1999/xlink" width="700" height="345" viewBox="0 0 185.21 91.28"><g stroke-linejoin="bevel" stroke-width=".53" paint-order="stroke markers fill"><path fill-opacity=".1" stroke="#1a1a1a" d="m21.17 127 23.8-10.58 17.2 2.64h17.2l22.5 5.3 10.58 1.32 23.81-5.3 13.23 15.88 11.9 9.26 18.53-6.61 10.58 3.97 6.61-14.56-3.96-17.2-22.5-2.64 2.65-14.55 9.26-5.3 6.62-6.6 7.93-6.62-6.61-6.62-15.88-1.32-18.52-2.65h-43.65L80.7 68.8l-19.85 1.32-39.68 1.33 3.97 15.87-3.97 25.14z" style="font-variation-settings:normal" transform="translate(-15.21 -59.53)"/><path fill="none" stroke="#000" d="m21.17 112.45 19.84-5.3 21.17-1.32 17.2 6.62 23.8 1.32 15.88-6.61 17.2-9.26 11.9 3.96 9.27 10.59v11.9l-7.94 11.91M25.14 87.31l14.55 5.3 22.49-14.56L80.7 68.8l14.55 19.85 23.81-14.56 37.04-9.26 17.2 29.1m-2.64 14.55 9.26 30.43" style="font-variation-settings:normal" transform="translate(-15.21 -59.53)"/><path fill="none" stroke="#000" d="M44.98 116.42 41 107.16 39.69 92.6 21.17 71.44m41.01 47.62V78.05l-1.33-7.94m18.52 48.95v-6.61l1.33-43.66m21.16 55.56 1.33-10.58-7.94-25.13m17.2 37.04 6.61-18.52V74.08l-6.61-9.26m23.81 55.57v-22.5l19.84-33.07m-19.84 55.57 11.9-18.53 25.14-7.93m-37.04 26.46 21.17-7.94 13.23-3.97m-34.4 11.91 21.17 3.96 22.49 14.56 13.23-27.78m-18.52-43.66 7.93 21.17m7.94-19.84-1.32 13.22" style="font-variation-settings:normal" transform="translate(-15.21 -59.53)"/></g><g paint-order="stroke markers fill"><path fill="none" stroke="#fff8b3" stroke-linejoin="bevel" stroke-width=".53" d="M17.2 99.88h23.15l21.83-7.94 17.86-1.32 19.18 10.58 19.84-10.58 27.12-9.26 14.55 16.54 3.31 12.56 4.63 21.17-13.23 9.26-5.55 3.44" style="font-variation-settings:normal" transform="translate(-15.21 -59.53)"/><path fill="#fff8b3" d="m132.18 86.38 1.58-3.02 1.82 2.88z"/></g><g transform="translate(-15.21 -59.53)"><circle id="a" cx="21.17" cy="71.44" r="1.07" fill="#ff7f2a" stroke="#000" stroke-dasharray="none" stroke-width=".5" paint-order="stroke markers fill"/><use xlink:href="#a" transform="translate(39.69 -1.32)"/><use xlink:href="#a" transform="translate(59.53 -2.65)"/><use xlink:href="#a" id="b" x="0" y="0" transform="translate(91.28 -6.61)"/><use xlink:href="#b" id="c" x="0" y="0" transform="translate(43.66)"/><use xlink:href="#c" id="d" x="0" y="0" transform="translate(18.52 2.65)"/><use xlink:href="#d" id="e" x="0" y="0" transform="translate(15.88 1.32)"/><use xlink:href="#e" id="f" x="0" y="0" transform="translate(6.61 6.61)"/><use xlink:href="#f" id="g" x="0" y="0" transform="translate(-7.94 6.61)"/><use xlink:href="#g" id="h" x="0" y="0" transform="translate(-6.61 6.61)"/><use xlink:href="#h" id="i" x="0" y="0" transform="translate(-9.26 5.3)"/><use xlink:href="#i" id="j" x="0" y="0" transform="translate(-2.65 14.55)"/><use xlink:href="#j" id="k" x="0" y="0" transform="translate(22.49 2.65)"/><use xlink:href="#k" id="l" x="0" y="0" transform="translate(3.97 17.2)"/><use xlink:href="#l" id="m" x="0" y="0" transform="translate(-6.61 14.55)"/><use xlink:href="#m" id="n" x="0" y="0" transform="translate(-10.58 -3.97)"/><use xlink:href="#n" id="o" x="0" y="0" transform="translate(-18.52 6.61)"/><use xlink:href="#o" id="p" x="0" y="0" transform="translate(-11.9 -9.26)"/><use xlink:href="#p" id="q" x="0" y="0" transform="translate(-13.23 -15.88)"/><use xlink:href="#q" id="r" x="0" y="0" transform="translate(-23.81 5.3)"/><use xlink:href="#r" id="s" x="0" y="0" transform="translate(-10.58 -1.32)"/><use xlink:href="#s" id="t" x="0" y="0" transform="translate(-22.49 -5.3)"/><use xlink:href="#t" id="u" x="0" y="0" transform="translate(-17.2)"/><use xlink:href="#u" id="v" x="0" y="0" transform="translate(-17.2 -2.65)"/><use xlink:href="#v" id="w" x="0" y="0" transform="translate(-23.81 10.58)"/><use xlink:href="#w" id="x" x="0" y="0" transform="translate(0 -14.55)"/><use xlink:href="#x" id="y" x="0" y="0" transform="translate(3.97 -25.14)"/><use xlink:href="#y" id="z" x="0" y="0" transform="translate(14.55 5.3)"/><use xlink:href="#z" id="A" x="0" y="0" transform="translate(1.32 14.55)"/><use xlink:href="#A" id="B" x="0" y="0" transform="translate(21.17 -1.32)"/><use xlink:href="#B" id="C" x="0" y="0" transform="translate(0 -27.78)"/><use xlink:href="#C" id="D" x="0" y="0" transform="translate(17.2 34.4)"/><use xlink:href="#D" id="E" x="0" y="0" transform="translate(23.81 1.32)"/><use xlink:href="#E" id="F" x="0" y="0" transform="translate(-7.94 -25.14)"/><use xlink:href="#F" id="G" x="0" y="0" transform="translate(23.81 -14.55)"/><use xlink:href="#G" id="H" x="0" y="0" transform="translate(0 33.07)"/><use xlink:href="#H" id="I" x="0" y="0" transform="translate(17.2 -9.26)"/><use xlink:href="#I" id="J" x="0" y="0" transform="translate(11.9 3.97)"/><use xlink:href="#J" id="K" x="0" y="0" transform="translate(9.26 10.58)"/><use xlink:href="#K" transform="translate(0 11.9)"/></g></svg>