ply
format ascii 1.0
comment Created by Blender 3.3.0 - www.blender.org
element vertex 6
property float x
property float y
property float z
property float s
property float t
element face 4
property list uchar uint vertex_indices
end_header
0.000000 0.000000 -1.000000 0.300000 0.500000
0.000000 2.000000 0.000000 0.500000 0.200000
0.900000 0.000000 0.500000 0.700000 0.500000
-0.900000 0.000000 0.500000 0.500000 0.800000
0.000000 2.000000 0.000000 0.900000 0.800000
0.000000 2.000000 0.000000 0.100000 0.800000
3 0 1 2
3 0 2 3
3 2 4 3
3 3 5 0
